<?xml version="1.0" encoding="UTF-8"?>
<!-- Generator: Adobe Illustrator 27.5.0, SVG Export Plug-In . SVG Version: 6.00 Build 0)  -->
<svg xmlns="http://www.w3.org/2000/svg" xmlns:xlink="http://www.w3.org/1999/xlink" version="1.1" id="Layer_1" x="0px" y="0px" viewBox="0 0 512 512" style="enable-background:new 0 0 512 512;" xml:space="preserve">
<style type="text/css">
	.st0{fill:url(#SVGID_1_);}
	.st1{fill:none;}
</style>
<linearGradient id="SVGID_1_" gradientUnits="userSpaceOnUse" x1="154.4688" y1="37.5444" x2="401.3311" y2="464.8298" gradientTransform="matrix(1 0 0 -1 0 514)">
	<stop offset="0.17" style="stop-color:#AC45FF"></stop>
	<stop offset="0.25" style="stop-color:#5E24BD"></stop>
	<stop offset="0.46" style="stop-color:#3D67B4"></stop>
	<stop offset="0.64" style="stop-color:#239DAD"></stop>
	<stop offset="0.8" style="stop-color:#0FC3A9"></stop>
	<stop offset="0.92" style="stop-color:#04DBA6"></stop>
	<stop offset="1" style="stop-color:#00E4A5"></stop>
</linearGradient>
<path class="st0" d="M498.8,303.7c-7.2-20.4-18.8-41.2-29.2-58.9c-13.3-22.6-17.1-44.8-12.7-74.1c6.4-42.8-4.9-82-30.3-104.8  c-16.7-15-47.2-30.2-97.8-17.1c-41.2,10.7-79.3-9.6-109.9-25.8C195.4,10.4,176.8,0.6,162.5,7c-8.3,3.8-14,12.8-17.5,27.5  c-9.2,39-18,65.9-27.9,84.8c-8.2,15.7-17,25.8-29.2,33.5c-30.5,19.3-52.9,40.9-66.6,64C9,237.5,4.1,259.4,6.8,280.2  c2.4,18.2,10.7,35.5,24,49.7c12.9,13.9,29.7,24.3,48.7,30.1c15.1,4.6,27.1,12.8,36.7,24.8c9.2,11.5,16.3,26.7,21.7,46.4  c4.8,17.6,12.5,32.4,22.9,44.1c10.3,11.6,22.8,19.4,37,23.2c6.3,1.7,12.9,2.5,19.6,2.5c10.2,0,20.9-2,31.7-6  c18.9-6.9,37.6-19.5,55.7-37.5c17.6-17.5,33.8-28.6,51-34.8c15.2-5.5,29.2-6.5,44-7.5c16.9-1.2,34.4-2.4,55.1-10.3  c25.1-9.6,41.1-23.9,47.6-42.6C508.2,346.2,506.9,327,498.8,303.7L498.8,303.7z M462.8,302.5c-3.1,33.4-19,60.8-47.2,81.5  c-12.4,9.1-24.5,15-36.8,20.2c8.5-6.5,16.5-13.6,23.9-21.6c17.4-18.7,30.6-40.2,39.3-64.1c8.4-23,12.2-47.1,11.3-71.7  c-0.2-5.4-0.6-10.7-1.3-16c0.9,1.7,1.7,3.4,2.5,5.1C461.9,260,464.7,282.3,462.8,302.5L462.8,302.5z M270.7,435.4  c-2.2,0.1-4.4,0.1-6.6,0.1c-46.1,0-89.8-17.2-123.7-48.8c-35.5-33.1-56-78.1-57.8-126.6c-1.7-48.6,15.6-94.9,48.6-130.4  c33.1-35.6,78-56,126.5-57.8c2.2-0.1,4.4-0.1,6.6-0.1c46.1,0,89.8,17.2,123.7,48.8c35.5,33.1,56,78.1,57.8,126.6  c1.7,48.6-15.6,94.9-48.6,130.4C364.1,413.2,319.2,433.7,270.7,435.4z M393.2,115.1c-18.7-17.4-40.2-30.6-64-39.3  c-13.3-4.8-27-8.1-40.8-9.9c49.9-5,91.6,16.8,116.2,60.8C400.9,122.7,397.2,118.8,393.2,115.1z M186.9,80.8  c-23.1,10.3-43.7,25.1-61.1,43.8c-0.6,0.6-1.1,1.2-1.6,1.8c2.1-4.7,4.2-9.7,6.4-15.1c2.2-4.2,4.5-8.5,6.8-13  c17.8-33,48.2-31.8,86.7-30.3c0.7,0,1.4,0,2.1,0.1C212.8,71,199.6,75.1,186.9,80.8z M75.2,260.4c0.9,24.6,6.4,48.4,16.4,70.7  c5.9,13.2,13.3,25.6,22,37.1c-23.6-17.9-39.9-42.3-46-69.7c-6.2-28.1-2-58.1,12.3-87.5C76.2,227.1,74.5,243.6,75.2,260.4L75.2,260.4  z M199.3,431.5c20.8,7.6,42.6,11.4,64.8,11.4c2.3,0,4.6,0,6.8-0.1c11.4-0.4,22.6-1.8,33.6-4.2c-18.6,10.8-38.1,16.4-57.3,16.4  c-4,0-7.9-0.2-11.8-0.7c-23-2.8-43.4-13.6-59.1-31.2c-1-1.1-2-2.3-3.1-3.4C181.6,424.3,190.3,428.2,199.3,431.5z M425.7,151.7  c-3.5-6.9-7.2-14.2-10.7-21.3c-12.4-25.1-30.5-45-52.3-57.4c-12.8-7.3-26.7-11.9-41.5-14.1c25.5-2.6,48.2,2.8,66.3,15.8  c11.6,8.4,21.2,19.6,28.5,33.4c7,13.4,11.5,28.5,13.5,45c0.3,2.8,0.7,5.6,1.1,8.4C429,158.2,427.3,155,425.7,151.7z M224.4,60.6  c-19.3-0.8-37.6-1.5-53.4,2.5c-11.2,2.8-20.3,7.7-27.8,15c1.3-3.5,2.5-7.1,3.9-10.9c6.4-18.3,15.7-24.7,29.6-24.7  c10.5,0,23.5,3.7,39.8,8.6c11.7,3.5,24.6,7.5,38.5,10C244.6,61.4,234.4,61,224.4,60.6L224.4,60.6z M80.9,193.3  C59.8,228.8,52.7,265.7,60.3,300c4.1,18.6,12.6,35.8,24.7,50.8c-23.4-14.3-38.8-36.3-42.8-61.5c-3.7-23.9,1.3-61.5,44.5-106.4  C84.8,186.5,82.9,190,80.9,193.3L80.9,193.3z M170.7,428c16.9,19,38.9,30.6,63.8,33.7c4.2,0.5,8.5,0.8,12.8,0.8  c14.9,0,30-3.2,44.7-9.3c-25.1,17.3-51.4,24-75.3,18.8c-23.9-5.2-43.6-21.9-55.5-47c-2.8-6-6.5-12.1-10.7-18.1  C157.2,413.3,163.9,420.3,170.7,428L170.7,428z M397.4,403.9c7.5-3.8,15-8.2,22.6-13.9c30-22,46.9-51.2,50.2-86.9  c0.9-9.6,0.7-19.8-0.4-30.2c5.6,17,8.6,32.3,8.8,45.8c0.2,15.1-3,28.5-9.6,39.9c-7.3,12.8-19.1,23.5-35.1,31.9  C421,397.5,409.2,401.1,397.4,403.9L397.4,403.9z M421.6,71.4c23.5,21.2,33.9,57.9,27.9,98.2c-1.5,10-2,19.2-1.7,27.9  c-1.3-3-2.7-6-4.1-9c-3-11.3-5.3-23.1-6.8-36.2c-2-17.4-6.8-33.4-14.3-47.6c-7.8-14.9-18.1-27-30.7-36C380,60,366.2,54.6,351.2,52.2  C386.4,48.1,408.7,59.7,421.6,71.4z M165.6,13.8c2.1-0.9,4.4-1.3,6.8-1.3c10.9,0,26,8,43,17c18.9,10.1,40.5,21.5,64.2,26.7  c-21.9-0.4-42.4-6.6-61.1-12.3c-17.9-5.4-33.2-10.1-46.6-8.7c-9.2,1-16.5,4.7-22.3,11.6c0.9-3.4,1.7-6.9,2.6-10.6  C155.2,24,159.6,16.6,165.6,13.8L165.6,13.8z M36.3,324.8c-12.2-13.1-19.8-28.9-22-45.6c-2.6-19.4,1.9-39.1,13.4-58.5  c13-22.1,34.6-42.8,64.1-61.5c3.9-2.5,7.4-5.2,10.8-8.2c-0.5,0.9-0.9,1.8-1.3,2.7c-5,7.7-10,13.9-15.4,19.2  c-49.7,49.2-55.2,91-51.1,117.5c3.4,22,14.9,41.8,32.4,56.7C55.3,341.5,44.8,334,36.3,324.8L36.3,324.8z M246.5,488.1  c-16.5,6-32.2,7.1-46.8,3.2c-12.7-3.4-23.9-10.5-33.3-20.9c-9.6-10.8-16.8-24.6-21.3-41.1c-3.5-12.7-7.8-23.8-12.9-33.3  c8.8,9.7,16.6,20.6,22.1,32.2c12.9,27.2,34.4,45.3,60.7,51c5.8,1.3,11.8,1.9,17.9,1.9c15.9,0,32.4-4.4,48.6-13  C270,477.2,258.3,483.9,246.5,488.1L246.5,488.1z M495.5,359.9c-5.9,16.7-20,29.2-43.3,38.1c-13.1,5-25,7.2-36.3,8.5  c6.9-2.3,14-5.2,21.5-9.1c32.7-17.2,49.1-43.6,48.7-78.6c-0.1-12.5-2.5-26.2-6.9-41.2c4.8,9.5,9.2,19.2,12.5,28.7  C499.3,327.9,500.6,345.4,495.5,359.9z"></path>
<rect x="1" y="1" class="st1" width="511" height="511"></rect>
</svg>
