<svg xmlns="http://www.w3.org/2000/svg" width="67.459" height="84" viewBox="0 0 67.459 84">
  <path id="Icon_awesome-angle-double-down" data-name="Icon awesome-angle-double-down" d="M30.143,46.044,1.482,17.383a5.037,5.037,0,0,1,0-7.144L6.245,5.476a5.037,5.037,0,0,1,7.144,0L33.705,25.792,54.021,5.476a5.037,5.037,0,0,1,7.144,0l4.8,4.742a5.037,5.037,0,0,1,0,7.144L37.309,46.023A5.044,5.044,0,0,1,30.143,46.044Zm7.165,40.463L65.97,57.846a5.037,5.037,0,0,0,0-7.144l-4.763-4.763a5.037,5.037,0,0,0-7.144,0L33.726,66.234,13.41,45.918a5.037,5.037,0,0,0-7.144,0L1.482,50.681a5.037,5.037,0,0,0,0,7.144L30.143,86.486A5.044,5.044,0,0,0,37.309,86.507Z" transform="translate(0.004 -3.99)" fill="#170d67"/>
</svg>
