<?xml version="1.0" encoding="UTF-8"?>
<svg xmlns="http://www.w3.org/2000/svg" width="390" height="120" viewBox="0 0 390 120" fill="none">
  <path d="M140.921 29.3176L139.316 35.8126C136.271 34.5293 132.825 33.7263 129.702 33.7263C121.85 33.7263 117.609 39.4183 117.609 48.2278C117.609 57.6042 122.094 62.6585 130.504 62.6585C133.47 62.6585 136.751 61.8555 139.717 60.4148L141.157 66.9885C138.356 68.4292 134.273 69.4684 129.946 69.4684C116.814 69.4684 109.363 61.5327 109.363 48.3932C109.363 35.2536 116.57 26.9164 129.143 26.9164C133.706 26.9164 137.955 27.9556 140.913 29.3255L140.921 29.3176ZM162.935 69.4684C151.078 69.4684 143.95 60.895 143.95 48.1491C143.95 35.4032 151.078 26.9086 162.935 26.9086C174.792 26.9086 181.999 35.4819 181.999 48.1491C181.999 60.8163 174.949 69.4684 162.935 69.4684ZM162.935 62.6585C170.221 62.6585 173.667 56.9665 173.667 48.1491C173.667 39.3317 170.221 33.7263 162.935 33.7263C155.65 33.7263 152.204 39.4183 152.204 48.1491C152.204 56.8799 155.886 62.6585 162.935 62.6585ZM239.119 68.5079V42.9374C239.119 37.3241 236.641 33.7185 230.386 33.7185C226.782 33.7185 223.1 35.0017 220.779 36.5211C221.495 38.6074 221.818 41.0873 221.818 43.8113V68.4922H213.887V42.9374C213.887 37.3241 211.487 33.7185 205.24 33.7185C202.196 33.7185 199.151 34.4427 196.507 35.8047V68.5H188.419V30.6796C193.384 28.3572 199.473 26.9086 205.555 26.9086C210.441 26.9086 214.288 28.1918 217.011 30.593C220.614 28.5933 225.343 26.9086 230.708 26.9086C241.684 26.9086 247.207 32.8367 247.207 42.3784V68.5079H239.119V68.5079ZM287.939 44.7087C287.939 34.2774 281.676 27.5305 271.975 27.5305C266.523 27.5305 261.928 29.5381 258.686 33.3406C255.523 37.0565 253.848 42.2052 253.848 48.2357C253.848 61.2965 261.464 69.0983 274.217 69.0983C279.064 69.0983 283.47 68.2087 287.317 66.4531L286.436 62.4617C282.455 64.0992 278.379 64.9573 274.611 64.9573C264.918 64.9573 259.324 59.4543 258.859 49.456L258.844 49.0623H287.734C287.868 47.724 287.939 46.2911 287.939 44.7087V44.7087ZM283.084 45.4803L283.037 45.803H258.915L258.954 45.3937C259.733 36.7494 264.603 31.585 271.983 31.585C275.634 31.585 278.608 32.9076 280.567 35.419C282.243 37.5603 283.171 40.5756 283.171 43.9057C283.171 44.5592 283.171 44.8898 283.084 45.4803V45.4803ZM322.486 29.0578L321.975 28.8689C319.654 28.0029 317.026 27.5305 314.579 27.5305C301.723 27.5305 294.052 35.537 294.052 48.9521C294.052 61.3752 301.613 69.0905 313.777 69.0905C319.017 69.0905 323.824 67.9253 327.333 65.8076V10.9585L322.478 11.234V29.0499L322.486 29.0578ZM322.486 62.8553L322.321 62.9655C320.527 64.1937 317.223 64.9494 313.698 64.9494C304.674 64.9494 299.064 58.7536 299.064 48.7868C299.064 37.7414 304.658 31.6637 314.815 31.6637C317.207 31.6637 319.921 32.262 322.258 33.3012L322.478 33.4035V62.8553H322.486ZM335.091 18.5478C335.649 18.7603 336.428 18.9965 337.301 18.9965C338.364 18.9965 338.985 18.595 338.985 17.7684C338.985 16.8315 338.277 16.556 337.113 16.1702C335.744 15.7215 334.91 15.1232 334.91 13.7848C334.91 12.3362 335.925 11.5253 337.648 11.5253C338.403 11.5253 339.221 11.7064 339.741 11.919L339.489 12.9424C338.93 12.7535 338.332 12.6118 337.718 12.6118C336.672 12.6118 336.161 13.0054 336.161 13.7454C336.161 14.5484 336.688 14.8161 337.718 15.1625C339.135 15.6349 340.244 16.1309 340.244 17.7526C340.244 19.3744 338.969 20.0751 337.357 20.0751C336.365 20.0751 335.452 19.8783 334.862 19.6185L335.098 18.5478H335.091ZM350.15 11.6749V19.9412H348.993V15.1546C348.993 14.6587 349.017 14.202 349.056 13.7769C348.379 15.3121 347.53 16.8866 346.436 18.595H345.429C344.32 16.8866 343.47 15.3042 342.777 13.769C342.825 14.1863 342.848 14.6508 342.848 15.1625V19.9491H341.7V11.6749H342.974C343.777 13.6431 344.721 15.4302 345.932 17.3669C347.136 15.4302 348.057 13.6431 348.859 11.6749H350.142H350.15ZM121.244 113.807H112.888C112.282 115.602 111.7 117.429 111.173 119.255H109.214C111.275 112.587 113.47 106.32 116.059 100.739H118.042C120.63 106.32 122.88 112.508 124.918 119.255H122.959C122.432 117.429 121.85 115.602 121.244 113.807ZM113.447 112.138H120.693C119.395 108.359 118.073 104.943 117.074 102.691C116.067 104.943 114.745 108.352 113.455 112.138H113.447ZM128.891 119.255V100.739H130.74C133.966 106.502 137.137 111.209 141.023 116.579C140.968 115.894 140.945 115.043 140.945 114.067V100.739H142.739V119.255H140.89C136.846 113.831 133.518 109.257 130.606 103.888C130.662 104.785 130.685 105.824 130.685 106.856V119.263H128.883L128.891 119.255ZM166.908 119.255H156.122V100.739H166.908V102.4H158.026V108.911H165.642V110.58H158.026V117.594H166.908V119.263V119.255ZM177.333 110.894C175.642 113.193 173.683 116.209 172.282 119.255H170.276C171.755 115.894 174.029 112.587 176.436 109.548L170.646 100.739H172.841L177.892 108.407C179.898 105.919 181.621 103.171 182.597 100.739H184.58C183.336 103.809 181.275 106.824 178.765 109.729L185.004 119.255H182.833L177.333 110.894V110.894ZM199.717 119.255H188.93V100.739H199.717V102.4H190.834V108.911H198.45V110.58H190.834V117.594H199.717V119.263V119.255ZM204.068 100.739H205.972V117.586H214.753V119.255H204.068V100.739V100.739ZM225.099 119.57C219.835 119.57 217.325 115.366 217.325 109.997C217.325 104.628 219.78 100.424 225.099 100.424C230.417 100.424 232.896 104.628 232.896 109.997C232.896 115.366 230.386 119.57 225.099 119.57ZM225.099 117.854C229.198 117.854 230.913 114.366 230.913 109.997C230.913 105.628 229.198 102.14 225.099 102.14C221 102.14 219.308 105.636 219.308 109.997C219.308 114.358 221.023 117.854 225.099 117.854ZM237.774 119.255V100.739H239.623C242.848 106.502 246.019 111.209 249.906 116.579C249.851 115.894 249.827 115.043 249.827 114.067V100.739H251.621V119.255H249.772C245.728 113.831 242.392 109.257 239.489 103.888C239.544 104.785 239.568 105.824 239.568 106.856V119.263H237.766L237.774 119.255ZM264.052 110.21C264.052 104.628 266.696 100.424 272.298 100.424C273.855 100.424 275.421 100.77 276.822 101.353L276.35 102.99C275.106 102.542 273.887 102.14 272.329 102.14C267.837 102.14 266.035 105.738 266.035 110.21C266.035 114.681 268.073 117.854 272.455 117.854C274.202 117.854 275.468 117.374 276.554 116.901L276.948 118.539C275.862 119.09 274.202 119.57 272.4 119.57C266.924 119.57 264.044 115.839 264.044 110.21H264.052ZM287.435 119.57C282.172 119.57 279.662 115.366 279.662 109.997C279.662 104.628 282.125 100.424 287.435 100.424C292.746 100.424 295.232 104.628 295.232 109.997C295.232 115.366 292.722 119.57 287.435 119.57ZM287.435 117.854C291.534 117.854 293.25 114.366 293.25 109.997C293.25 105.628 291.527 102.14 287.435 102.14C283.344 102.14 281.645 105.636 281.645 109.997C281.645 114.358 283.36 117.854 287.435 117.854ZM318.482 100.739V119.255H316.688V106.927C316.688 105.872 316.743 104.919 316.766 104.092C315.075 108.005 312.958 111.973 310.134 116.421H308.497C305.665 111.981 303.525 107.958 301.81 104.069C301.888 104.888 301.912 105.872 301.912 106.927V119.255H300.11V100.739H302.093C303.997 105.391 306.405 109.84 309.339 114.547C312.25 109.84 314.626 105.391 316.507 100.739H318.489H318.482ZM324.241 100.739H328.733C333.202 100.739 336.082 102.534 336.082 106.667C336.082 110.8 333.202 112.564 328.733 112.564H326.145V119.255H324.241V100.739ZM328.71 102.4H326.145V110.894H328.71C331.959 110.894 334.131 109.918 334.131 106.659C334.131 103.4 331.959 102.4 328.71 102.4ZM349.811 113.8H341.456C340.85 115.594 340.268 117.421 339.733 119.247H337.774C339.835 112.579 342.03 106.313 344.619 100.731H346.601C349.19 106.313 351.44 112.501 353.478 119.247H351.519C350.991 117.421 350.409 115.594 349.803 113.8H349.811ZM342.014 112.131H349.26C347.962 108.352 346.641 104.935 345.641 102.683C344.634 104.935 343.312 108.344 342.022 112.131H342.014ZM357.459 119.247V100.731H359.308C362.533 106.494 365.704 111.202 369.591 116.571C369.536 115.886 369.512 115.036 369.512 114.059V100.731H371.306V119.247H369.457C365.413 113.823 362.085 109.249 359.174 103.88C359.229 104.777 359.253 105.817 359.253 106.848V119.255H357.451L357.459 119.247ZM381.495 111.446C378.694 107.714 376.711 104.541 375.153 100.731H377.16C378.481 103.959 380.016 106.494 382.47 109.855C384.902 106.525 386.412 103.959 387.734 100.731H389.74C388.127 104.541 386.2 107.738 383.399 111.39V119.247H381.495V111.446V111.446Z" fill="white"></path>
  <path d="M84.1707 50.7627C82.9433 47.2751 80.9528 43.7009 79.1668 40.6699C76.8851 36.7887 76.2321 32.994 76.9874 27.9634C78.0889 20.6339 76.1534 13.9185 71.8025 9.99789C68.9465 7.42352 63.7144 4.81766 55.0362 7.06925C47.9709 8.89572 41.4485 5.43173 36.2085 2.6448C32.1802 0.503424 28.9938 -1.18921 26.539 -0.0791552C25.115 0.566406 24.1314 2.10945 23.5335 4.63659C21.9599 11.3126 20.4415 15.926 18.7499 19.1617C17.3416 21.8542 15.8388 23.5783 13.7381 24.9088C8.5139 28.2232 4.67441 31.9155 2.3298 35.8754C0.244836 39.4103 -0.60489 43.1577 -0.132822 46.724C0.284171 49.8495 1.70822 52.8017 3.97415 55.2423C6.17713 57.6198 9.0646 59.3991 12.3219 60.4068C14.9025 61.2019 16.9639 62.5954 18.6161 64.658C20.1897 66.6262 21.4092 69.2321 22.3376 72.6173C23.1637 75.6404 24.4856 78.1754 26.2637 80.1751C28.0339 82.1669 30.1661 83.5052 32.5972 84.1508C33.683 84.4421 34.8002 84.5838 35.9489 84.5838C37.7034 84.5838 39.5288 84.2453 41.3856 83.5604C44.6192 82.3795 47.8293 80.2145 50.9371 77.1284C53.9583 74.1289 56.7356 72.2315 59.6703 71.1687C62.2667 70.224 64.6742 70.0587 67.2155 69.8776C70.1109 69.6729 73.1085 69.4604 76.6569 68.1063C80.9527 66.4609 83.6986 64.0046 84.8158 60.8083C85.7835 58.0371 85.5712 54.7542 84.1707 50.7548V50.7627ZM78.0101 50.558C77.483 56.2815 74.7608 60.9815 69.93 64.532C67.8057 66.083 65.7364 67.1064 63.6279 67.996C65.0834 66.886 66.4524 65.6578 67.7191 64.2959C70.701 61.0917 72.9669 57.3994 74.454 53.3135C75.8938 49.3692 76.5468 45.2361 76.3973 41.0242C76.3658 40.1031 76.2871 39.1898 76.177 38.2845C76.3265 38.5836 76.4602 38.8671 76.6019 39.1662C77.8528 43.2758 78.3327 47.094 78.018 50.558H78.0101ZM45.0913 73.3259C44.7136 73.3416 44.336 73.3495 43.9584 73.3495C36.0591 73.3495 28.5689 70.4051 22.7625 64.9887C16.6728 59.3124 13.1638 51.613 12.8648 43.2915C12.5658 34.9701 15.532 27.0344 21.1968 20.9488C26.8695 14.8553 34.5642 11.3441 42.8805 11.045C43.2581 11.0292 43.6357 11.0213 44.0134 11.0213C51.9127 11.0213 59.4029 13.9657 65.2093 19.3821C71.299 25.0584 74.808 32.7579 75.107 41.0793C75.4059 49.4007 72.4398 57.3364 66.775 63.422C61.1023 69.5155 53.4075 73.0267 45.0913 73.3259ZM66.0826 18.4374C62.8804 15.4537 59.1904 13.1863 55.107 11.6984C52.8332 10.8718 50.4886 10.3049 48.1125 10.0058C56.6648 9.14764 63.8088 12.8872 68.0259 20.4213C67.4044 19.7364 66.7671 19.0751 66.0826 18.4374ZM30.7247 12.5644C26.7593 14.3357 23.2424 16.8629 20.2606 20.0671C20.1661 20.1694 20.0795 20.2796 19.9851 20.382C20.347 19.579 20.709 18.7208 21.0866 17.7997C21.4643 17.0754 21.8498 16.3433 22.2589 15.5718C25.3037 9.91917 30.5201 10.1239 37.1212 10.3837C37.2392 10.3837 37.3651 10.3915 37.4831 10.3994C35.1621 10.8718 32.904 11.5882 30.7247 12.5644ZM11.5823 43.3309C11.7318 47.5428 12.6759 51.6208 14.3911 55.447C15.4061 57.7143 16.6728 59.8399 18.1677 61.8002C14.1158 58.7377 11.3384 54.5495 10.292 49.8495C9.22199 45.0393 9.95373 39.8984 12.3928 34.8599C11.7555 37.6232 11.4722 40.4573 11.5745 43.3309H11.5823ZM32.8569 72.6645C36.4289 73.9714 40.1582 74.6248 43.9584 74.6248C44.3518 74.6248 44.7451 74.6248 45.1307 74.6012C47.0819 74.5304 49.0016 74.2863 50.882 73.8769C47.6955 75.7191 44.3517 76.6875 41.0708 76.6875C40.3863 76.6875 39.7098 76.6481 39.041 76.5615C35.0992 76.0813 31.5981 74.2233 28.9151 71.2081C28.742 71.0113 28.5689 70.8223 28.388 70.6334C29.8199 71.4207 31.307 72.0977 32.8569 72.6645ZM71.653 24.712C71.0472 23.5232 70.4256 22.2872 69.8198 21.059C67.6955 16.7527 64.5956 13.3438 60.8584 11.2182C58.6633 9.97428 56.2872 9.17913 53.7537 8.80912C58.1204 8.36825 62.015 9.28148 65.1149 11.5095C67.1054 12.9423 68.7498 14.8711 69.9929 17.2408C71.1967 19.5317 71.9677 22.1297 72.2981 24.956C72.3532 25.4441 72.424 25.9165 72.4948 26.3888C72.2116 25.8299 71.9284 25.2709 71.653 24.712ZM37.1606 9.10041C33.8482 8.96657 30.7247 8.84848 28.0024 9.5334C26.0906 10.0136 24.5248 10.856 23.2424 12.1078C23.4627 11.5016 23.6752 10.8875 23.9033 10.2419C24.997 7.10862 26.5941 6.01431 28.9702 6.01431C30.764 6.01431 32.9985 6.64413 35.7916 7.4865C37.79 8.0927 40.0087 8.76975 42.3848 9.19488C40.6145 9.22637 38.8758 9.16339 37.1684 9.10041H37.1606ZM12.5579 31.8446C8.94662 37.9145 7.72714 44.2362 9.04106 50.125C9.74916 53.3056 11.1968 56.2657 13.2661 58.8322C9.25349 56.3759 6.60985 52.6049 5.93322 48.2907C5.29593 44.1969 6.16145 37.757 13.565 30.0654C13.2346 30.6795 12.9041 31.2778 12.5658 31.8446H12.5579ZM27.9552 72.0583C30.8505 75.3098 34.6271 77.3094 38.8836 77.829C39.6074 77.9156 40.3391 77.9629 41.0787 77.9629C43.6358 77.9629 46.2164 77.4118 48.742 76.3647C44.4383 79.3327 39.93 80.4743 35.8466 79.5846C31.7475 78.6872 28.3722 75.8294 26.3345 71.5387C25.8467 70.5074 25.2251 69.4682 24.5012 68.4448C25.6342 69.5312 26.7829 70.7357 27.9631 72.0662L27.9552 72.0583ZM66.8064 67.9331C68.0888 67.2796 69.3713 66.5238 70.6853 65.5555C75.8308 61.7845 78.7261 56.7774 79.2847 50.6682C79.4342 49.015 79.4028 47.283 79.2139 45.4959C80.1817 48.4088 80.6931 51.0225 80.7246 53.3528C80.7561 55.9429 80.2053 58.2418 79.0802 60.1942C77.8214 62.3907 75.7994 64.225 73.0692 65.6578C70.8426 66.8309 68.8284 67.445 66.8064 67.9252V67.9331ZM70.9527 10.9505C74.981 14.5798 76.7671 20.8701 75.7285 27.7744C75.4689 29.4907 75.3823 31.0574 75.4452 32.5532C75.2171 32.0336 74.989 31.5218 74.7451 31.0101C74.2258 29.0813 73.8403 27.0502 73.5728 24.8064C73.2266 21.8227 72.4004 19.0751 71.1258 16.6424C69.7883 14.0917 68.0181 12.0133 65.8623 10.4703C63.8167 8.99806 61.4563 8.06121 58.8757 7.65183C64.9182 6.95116 68.734 8.95083 70.9527 10.9505ZM27.0819 1.086C27.4359 0.92855 27.8293 0.857695 28.2542 0.857695C30.1267 0.857695 32.7152 2.23542 35.6184 3.77847C38.8521 5.50259 42.5658 7.46289 46.6256 8.36037C42.8805 8.29739 39.3635 7.23458 36.1613 6.25836C33.1008 5.32939 30.465 4.52637 28.1834 4.76255C26.602 4.92788 25.351 5.57344 24.3596 6.74647C24.5091 6.15602 24.6507 5.55769 24.8002 4.93575C25.2959 2.818 26.0433 1.55837 27.0898 1.09388L27.0819 1.086ZM4.92622 54.3763C2.84125 52.1247 1.53516 49.4243 1.14963 46.5587C0.701169 43.2364 1.47224 39.859 3.43919 36.5289C5.67365 32.7421 9.37149 29.1994 14.4305 25.9952C15.0914 25.5701 15.7051 25.1056 16.2794 24.586C16.2007 24.7434 16.1299 24.893 16.0512 25.0505C15.2015 26.3652 14.3439 27.4359 13.4155 28.3491C4.89468 36.7729 3.95053 43.945 4.65077 48.4796C5.23298 52.2506 7.19997 55.6359 10.1976 58.1945C8.18345 57.2419 6.38175 55.9429 4.91834 54.3605L4.92622 54.3763ZM40.9449 82.3637C38.1204 83.395 35.4218 83.584 32.9277 82.9148C30.7483 82.3322 28.8286 81.1198 27.2235 79.3248C25.5792 77.4826 24.3518 75.113 23.5807 72.2867C22.9828 70.1059 22.251 68.2165 21.3777 66.5789C22.8805 68.2401 24.218 70.1059 25.1622 72.0898C27.373 76.7505 31.063 79.8523 35.5634 80.8364C36.5626 81.0568 37.5854 81.1671 38.624 81.1671C41.3541 81.1671 44.1707 80.4113 46.9481 78.947C44.9654 80.4821 42.9591 81.6315 40.9528 82.3637H40.9449ZM83.6042 60.391C82.5971 63.2567 80.1738 65.3902 76.1927 66.9175C73.9425 67.7756 71.9126 68.1535 69.9693 68.3661C71.1573 67.9724 72.3769 67.4764 73.6593 66.7994C79.2612 63.855 82.07 59.3282 81.9992 53.3371C81.9756 51.1957 81.5743 48.8496 80.8111 46.2753C81.6372 47.897 82.3847 49.5582 82.959 51.1878C84.2651 54.8959 84.4776 57.9032 83.6042 60.391Z" fill="url(#paint0_linear_1_193)"></path>
  <defs>
    <linearGradient id="paint0_linear_1_193" x1="25.1936" y1="80.3798" x2="67.4989" y2="7.15502" gradientUnits="userSpaceOnUse">
      <stop offset="0.17" stop-color="#AC45FF"></stop>
      <stop offset="0.25" stop-color="#5E24BD"></stop>
      <stop offset="0.46" stop-color="#3D67B4"></stop>
      <stop offset="0.64" stop-color="#239DAD"></stop>
      <stop offset="0.8" stop-color="#0FC3A9"></stop>
      <stop offset="0.92" stop-color="#04DBA6"></stop>
      <stop offset="1" stop-color="#00E4A5"></stop>
    </linearGradient>
  </defs>
</svg>
